<svg version="1.1" id="Layer_1" xmlns="http://www.w3.org/2000/svg" xmlns:xlink="http://www.w3.org/1999/xlink" x="0px" y="0px"
	 width="100%" viewBox="0 0 560 416" enable-background="new 0 0 560 416" xml:space="preserve">
<path fill="#000000" opacity="1.000000" stroke="none" 
	d="
M192.793640,216.588196 
	C198.681900,214.513245 208.230225,221.103439 211.246429,227.747955 
	C211.780243,228.923904 212.312546,230.100540 213.068542,231.247910 
	C210.922928,215.241135 215.152756,200.709930 223.479126,187.383713 
	C231.955536,173.817322 244.309372,164.459656 259.058777,158.758865 
	C281.904663,149.928711 304.835968,150.448593 327.275024,160.502655 
	C341.432068,166.845871 352.481018,176.900345 360.660370,190.092972 
	C361.097778,190.798538 361.569183,191.487244 362.078888,192.141632 
	C362.265045,192.380661 362.609009,192.496780 362.884644,192.665253 
	C363.090363,192.469223 363.502014,192.198486 363.463684,192.096085 
	C362.520294,189.574768 361.271637,186.773514 363.617004,184.664581 
	C366.224823,182.319687 368.772217,184.595673 371.395966,185.555099 
	C377.037201,187.617859 381.927368,190.423111 384.634277,196.082886 
	C385.852661,198.630371 387.653625,201.394058 385.382812,203.960846 
	C382.021545,207.760193 376.959656,208.547989 373.296783,206.126907 
	C371.103729,204.677338 369.172699,202.831329 366.106903,200.335602 
	C366.830231,204.606445 367.038239,207.350067 370.394470,209.820465 
	C376.260864,214.138519 383.481354,217.393799 385.447021,225.633072 
	C385.995148,227.930511 387.234924,230.321198 385.696594,232.297287 
	C383.690247,234.874619 382.076080,231.016968 379.940002,231.355560 
	C378.828613,232.945358 379.683868,235.933823 376.668976,236.247467 
	C373.587982,236.567993 371.592377,234.670853 370.012177,232.552399 
	C366.747681,228.175903 364.936707,222.941315 364.902405,217.668335 
	C364.829773,206.500702 359.156555,198.049728 352.536957,190.102356 
	C340.253632,175.355209 324.186096,167.640335 305.224335,165.272491 
	C283.459686,162.554611 263.887451,167.780533 247.064041,181.627945 
	C234.070511,192.322968 225.572891,206.163025 224.424988,223.356888 
	C222.503677,252.134506 236.359131,271.838104 261.062714,284.951355 
	C263.422668,286.204071 266.212006,286.829895 268.812927,289.837189 
	C262.656647,290.012787 258.652496,286.620911 253.831238,285.417877 
	C251.155457,291.133850 244.600113,291.858826 239.981430,295.852997 
	C242.389938,297.193817 243.886078,298.434204 246.268112,295.367889 
	C248.479630,292.521088 251.272980,289.853577 255.616119,289.330963 
	C260.248108,288.773590 264.057861,288.237274 264.460510,294.478424 
	C264.591492,296.508575 266.286041,296.632019 267.820007,296.615570 
	C270.358826,296.588379 272.754639,296.939911 274.611084,298.421600 
	C275.723724,300.177979 273.337708,301.220612 274.382812,303.258911 
	C280.204895,299.257843 286.263336,301.946198 290.205322,305.357758 
	C293.444946,308.161438 296.585907,309.519073 300.270477,310.793274 
	C302.083740,311.420349 303.267609,313.183624 302.939972,315.155396 
	C302.594757,317.232727 300.598267,317.773071 298.807281,318.240051 
	C295.723480,319.044128 293.019470,317.260071 290.129639,316.684875 
	C288.451935,319.316376 291.693268,321.095215 290.820404,323.682098 
	C287.384094,326.619019 284.040710,325.474945 280.470581,322.638214 
	C279.024078,324.782349 278.720886,328.538544 275.177460,328.100159 
	C272.537292,327.773529 270.551880,325.658783 267.893951,323.355957 
	C267.579224,328.680450 263.638977,329.642151 260.846649,328.045929 
	C254.308838,324.308624 255.184494,317.655579 256.469421,311.360657 
	C239.492294,306.908020 225.717346,297.189728 212.706146,286.475067 
	C206.888275,281.684113 201.493286,276.134460 197.308777,269.618958 
	C194.627625,265.444244 191.074905,261.781372 188.730255,257.446899 
	C179.162491,239.759369 173.395233,220.778107 175.950150,200.686325 
	C178.429596,181.187866 182.362961,161.745407 195.837479,145.937759 
	C198.501465,142.812485 200.374603,138.977036 203.744659,136.441147 
	C207.372787,133.711075 211.623337,134.006912 213.991577,137.112610 
	C215.661407,139.302414 215.883362,141.237427 213.701187,143.655060 
	C202.648315,155.900620 195.506805,170.273376 190.313187,185.895294 
	C186.131378,198.473740 187.311432,211.240707 187.618454,223.941116 
	C187.744675,229.162903 189.442093,234.691071 192.358856,239.387039 
	C193.722595,241.582657 192.738129,244.454239 194.886459,246.382141 
	C198.857559,243.706543 203.188080,242.850357 207.697708,245.032257 
	C214.008316,248.085541 218.494598,252.989059 221.424255,259.319977 
	C223.219574,263.199615 221.429413,264.966736 217.641647,265.270782 
	C215.156815,265.470215 212.657303,265.543304 210.320358,264.290771 
	C208.683868,263.413666 206.944641,262.912720 205.051392,263.807373 
	C204.794220,266.405060 207.226074,267.808807 207.751450,270.093445 
	C208.081589,271.529144 209.595871,272.009216 210.962219,270.888306 
	C217.752914,265.317261 224.547119,267.220886 231.367920,270.802490 
	C231.748306,271.002258 232.220901,271.026398 233.369095,271.309357 
	C225.300354,261.760986 218.286179,252.341553 215.391068,240.605408 
	C206.066635,243.411713 191.388611,232.889847 189.942566,221.888977 
	C189.671036,219.823151 190.668015,218.019150 192.793640,216.588196 
M227.452286,281.332153 
	C225.071457,281.549591 222.560104,280.814667 220.180557,282.046387 
	C224.307419,288.210205 225.963150,288.508148 230.848679,283.830353 
	C233.152557,281.624420 235.704834,280.551331 238.885834,280.608246 
	C240.450317,280.636261 242.172302,281.109314 244.014343,279.646942 
	C242.164444,278.099152 240.461212,276.674103 238.212753,274.792847 
	C236.161041,279.377563 232.924622,281.562927 227.452286,281.332153 
z"/>
<path fill="#000000" opacity="1.000000" stroke="none" 
	d="
M309.444580,255.546570 
	C298.272949,269.854034 274.104736,271.728424 259.640228,264.891510 
	C257.068298,263.675842 254.693314,263.078400 252.042633,264.351196 
	C251.449265,264.636169 250.788330,264.814636 250.138901,264.942841 
	C246.729782,265.615631 243.864883,264.293304 241.731491,261.883881 
	C239.067978,258.875732 243.233887,257.871948 244.218124,255.350494 
	C238.624863,253.606583 231.256317,253.011414 234.787476,243.855865 
	C231.522919,240.779678 228.494034,237.622055 232.515182,232.896133 
	C233.579834,231.644928 231.996979,230.523163 231.540649,229.336533 
	C230.165054,225.759338 229.303177,222.213882 234.125610,220.633011 
	C233.654739,218.156067 232.943695,215.895645 232.913437,213.626175 
	C232.898529,212.508179 234.072113,210.451614 234.827927,210.393982 
	C240.211792,209.983444 239.664581,206.164612 239.804840,202.573059 
	C239.869003,200.930237 241.340439,199.020523 242.342117,199.249863 
	C247.239761,200.371323 247.475204,196.551453 248.858170,193.797470 
	C249.295532,192.926498 250.155746,191.468216 250.635239,191.539429 
	C256.680176,192.437073 259.266083,186.383972 264.117737,185.020370 
	C264.733612,184.847260 265.419067,184.921768 265.829376,184.896515 
	C267.996796,185.853043 266.732239,188.195450 268.463226,189.554504 
	C271.414490,186.991257 273.385162,181.416107 278.901611,184.419662 
	C281.377899,185.767944 279.661346,187.912262 278.815369,190.078064 
	C281.166443,190.486359 282.724030,192.172379 284.634460,193.314713 
	C287.722809,195.161392 289.728943,198.524933 287.656189,201.189224 
	C285.209686,204.333923 282.396881,201.528488 280.589935,199.046677 
	C278.666840,199.855515 279.918182,202.154678 278.264221,202.841080 
	C269.045197,201.818848 257.354523,210.334656 254.101181,219.602081 
	C252.544006,224.037811 251.893829,228.179977 252.022141,232.873505 
	C252.151077,237.590698 254.867523,241.006683 257.416748,243.522369 
	C261.997559,248.042862 263.747284,252.240768 260.542267,257.747528 
	C262.170319,259.946930 264.203918,260.854980 266.244873,261.404144 
	C269.421997,262.259064 271.862762,261.260071 272.566010,257.671722 
	C272.948029,255.722488 273.342285,253.768661 273.569092,251.798248 
	C273.746521,250.256241 273.644196,248.514603 271.551544,248.480377 
	C265.507690,248.381561 264.120667,243.668076 262.398865,239.367508 
	C261.426544,236.938904 260.825684,234.361603 260.106323,232.010880 
	C261.570404,230.316742 262.986298,230.881805 264.434967,231.307816 
	C267.051941,232.077377 268.684113,232.112640 270.043091,228.671082 
	C271.634155,224.641830 274.989166,227.120850 277.551178,228.485382 
	C279.783783,229.674454 281.874512,233.889374 284.427734,230.273605 
	C286.103638,227.900208 288.800415,224.784622 285.525543,220.659027 
	C283.214447,217.747528 287.930298,215.824799 288.914276,213.275299 
	C289.320160,211.087372 286.479156,211.682800 286.246185,209.513184 
	C294.697266,201.970917 304.921692,198.540863 317.225647,198.415649 
	C313.802277,194.810501 309.939819,192.338318 308.948029,187.701340 
	C316.708313,184.284485 324.587036,185.453522 332.429230,184.961197 
	C339.876892,184.493591 341.364319,190.625610 345.840088,193.176697 
	C348.424805,194.649933 348.050720,198.866943 347.007874,201.582550 
	C345.729950,204.910309 345.231354,207.433441 349.118713,209.129883 
	C343.829712,213.124344 341.203369,217.782120 340.268433,224.470215 
	C339.509644,229.898270 336.097443,230.607315 330.245972,226.882050 
	C322.561615,239.690048 321.077087,251.766266 336.100494,261.309357 
	C329.773071,262.303619 324.683899,259.773102 319.559814,257.520508 
	C317.893158,256.787842 316.206421,255.928741 314.816345,254.779694 
	C312.781738,253.097855 311.234283,253.534088 309.444580,255.546570 
M305.324158,250.866119 
	C298.684998,248.875229 295.126282,243.727173 291.856262,236.260941 
	C291.175690,245.415939 288.065430,250.898712 279.370605,251.588547 
	C279.370605,254.022308 279.301483,256.326050 279.387817,258.623932 
	C279.500061,261.612396 281.636932,263.837006 284.080414,263.330597 
	C292.588287,261.567169 300.646759,258.580811 306.553802,250.659454 
	C307.270966,250.147751 307.949646,249.412262 307.612183,248.584717 
	C305.033661,242.260773 302.960785,235.827469 303.059540,228.820801 
	C302.340027,232.191650 302.508514,235.416199 302.817932,238.734604 
	C303.222778,243.076263 306.053986,246.664490 305.324158,250.866119 
M326.732483,214.707962 
	C322.048889,213.803085 320.851776,210.514511 321.884766,206.530701 
	C323.646515,199.736435 328.907288,200.535629 334.247589,202.140060 
	C333.367706,196.735794 329.577026,199.091766 327.043091,198.486328 
	C323.498779,197.639496 321.114044,199.578491 319.691650,202.232056 
	C318.109161,205.184128 317.401123,208.617096 319.990814,211.580002 
	C322.931763,214.944763 326.020966,218.179993 329.045685,221.471558 
	C328.316956,219.302017 327.605316,217.329086 326.732483,214.707962 
z"/>
<path fill="#000000" opacity="1.000000" stroke="none" 
	d="
M400.297363,197.061737 
	C403.399170,211.815323 403.670532,226.311218 400.184235,240.445221 
	C395.894226,257.837524 388.772797,274.082245 376.130920,287.368073 
	C374.705322,288.866333 373.223999,290.115753 371.340881,290.805389 
	C368.461975,291.859833 365.606842,291.838745 363.813904,288.944611 
	C362.128265,286.223663 361.813110,283.298096 364.332825,280.745453 
	C370.480255,274.517761 374.685577,266.953064 379.212128,259.576324 
	C387.285675,246.419189 389.821228,231.906784 390.722931,216.805145 
	C391.501740,203.761963 389.143860,191.361801 384.682007,179.223770 
	C383.479584,175.952606 381.988129,172.886414 379.672333,170.037643 
	C374.183289,180.505005 367.546722,180.905136 360.197876,171.564682 
	C359.074707,170.137131 357.871643,168.840546 357.660767,166.830444 
	C357.065765,161.158310 358.625549,159.701691 364.138519,161.430908 
	C368.199219,162.704575 372.144257,164.347076 376.500427,165.424973 
	C373.147003,160.334579 371.258392,154.125214 364.946472,151.447998 
	C361.587769,156.886520 357.099701,158.741226 351.666046,157.145874 
	C345.473083,155.327576 341.789062,151.180527 341.698700,145.560669 
	C337.701965,145.122986 333.552917,145.537659 329.575165,144.333878 
	C327.517883,143.711288 325.829193,142.891769 325.188385,140.749146 
	C324.478912,138.376892 326.458221,137.588882 327.883087,136.533844 
	C331.342926,133.972000 335.029694,131.826859 339.337891,130.997025 
	C337.688324,126.508690 333.595184,124.339882 327.874146,124.875565 
	C330.284149,127.544380 331.336456,130.103897 328.165497,132.834274 
	C325.069000,135.500519 317.942566,137.353973 315.120880,135.897369 
	C311.756165,134.160400 313.586029,131.329956 313.943207,128.311920 
	C311.675598,128.311920 309.722137,128.327026 307.769012,128.307388 
	C306.042145,128.290024 304.280243,127.993240 303.507935,126.295387 
	C302.738678,124.604179 304.360260,123.595100 305.229858,122.451126 
	C306.128571,121.268852 307.144257,120.175476 308.046783,119.115959 
	C308.819244,117.117561 305.567749,116.693535 306.971039,113.746147 
	C327.125214,113.444504 344.078094,123.002586 360.531738,133.560150 
	C362.378479,131.708694 361.459198,130.142700 361.065674,128.595581 
	C359.827240,123.726654 361.679352,119.328293 363.639801,115.166031 
	C365.238342,111.772232 369.683624,111.900040 371.603882,115.165215 
	C373.707642,118.742294 375.561401,122.348068 375.402008,126.826271 
	C375.132965,134.385223 374.330902,135.374542 366.732483,135.360794 
	C366.135956,135.359711 365.538788,135.710403 363.699127,136.287399 
	C381.380463,153.603836 395.439514,172.429504 400.297363,197.061737 
M355.693726,141.905136 
	C354.307373,138.595001 352.298370,136.011414 347.704193,135.595642 
	C350.098450,137.891861 348.246765,140.301239 348.425507,142.653030 
	C350.971619,143.225449 353.230377,143.531479 355.693726,141.905136 
z"/>
<path fill="#000000" opacity="1.000000" stroke="none" 
	d="
M409.168213,292.393860 
	C403.784637,293.856232 398.861786,292.326965 393.957306,292.063049 
	C391.198273,291.914581 389.039795,290.337585 388.576660,286.657104 
	C387.332306,276.767273 387.492554,277.489594 396.141632,272.585236 
	C408.353668,265.660522 419.588837,269.898773 431.063690,273.791168 
	C433.972107,274.777740 434.323456,279.781219 430.707581,282.015045 
	C424.069275,286.116089 418.144012,292.050415 409.168213,292.393860 
z"/>
<path fill="#000000" opacity="1.000000" stroke="none" 
	d="
M177.795044,154.454834 
	C167.324646,156.607529 157.598129,155.334793 148.221252,151.256226 
	C145.133728,149.913284 144.852905,147.832748 147.216843,145.481354 
	C159.241699,133.520340 173.552139,128.697525 190.154587,136.803528 
	C193.806854,138.586700 194.427673,141.042877 191.693130,144.265976 
	C187.974075,148.649490 183.195068,151.640015 177.795044,154.454834 
z"/>
<path fill="#000000" opacity="1.000000" stroke="none" 
	d="
M136.519226,186.078644 
	C144.336868,171.242477 158.335114,164.257629 172.879089,167.609375 
	C177.514648,168.677673 178.592865,170.863724 176.187027,175.060944 
	C171.434525,183.352142 165.642105,190.243652 155.220612,191.646942 
	C150.632202,192.264771 146.147079,193.498215 141.440765,193.357132 
	C135.473907,193.178268 135.025055,192.659271 136.519226,186.078644 
z"/>
<path fill="#000000" opacity="1.000000" stroke="none" 
	d="
M440.541870,241.197037 
	C434.035706,250.211761 426.822021,257.586731 415.374481,258.921570 
	C413.553223,259.133942 413.568420,259.264404 410.559479,258.478790 
	C409.494507,254.486557 413.112122,252.801758 415.161469,249.918732 
	C412.522858,248.817688 410.839630,250.407974 408.999420,251.151718 
	C407.149353,251.899445 405.092651,253.060669 403.469269,251.155182 
	C401.896759,249.309402 403.048431,247.246323 404.200134,245.657883 
	C408.174286,240.176682 412.828094,235.561752 419.917633,234.325745 
	C424.646576,233.501312 429.322449,232.256897 434.080658,231.741394 
	C442.089203,230.873734 443.864899,233.479095 440.541870,241.197037 
z"/>
<path fill="#000000" opacity="1.000000" stroke="none" 
	d="
M150.388275,207.298950 
	C154.411011,204.086472 158.795090,202.660751 163.416931,201.894302 
	C168.223877,201.097168 170.549911,203.243423 170.307632,208.100555 
	C169.963837,214.992966 161.442169,225.902786 154.404083,228.331314 
	C151.464340,229.345673 148.496414,230.344727 145.467422,231.018860 
	C140.617081,232.098328 138.867432,230.487228 139.816452,225.503662 
	C141.170197,218.394684 143.930832,211.945862 150.388275,207.298950 
z"/>
<path fill="#000000" opacity="1.000000" stroke="none" 
	d="
M414.730347,219.730347 
	C415.109131,218.462509 415.477325,217.557083 416.000427,216.270706 
	C413.722290,216.195190 410.969116,218.789413 409.316498,215.935318 
	C407.710022,213.160919 409.111786,210.271988 410.572296,207.932831 
	C414.607330,201.470276 420.576630,197.299347 427.899109,195.459671 
	C431.215393,194.626495 434.994629,191.309830 438.065094,194.295486 
	C441.286621,197.428070 437.808380,201.163956 436.868042,204.477493 
	C434.458221,212.969391 428.767792,218.857956 420.881592,222.520584 
	C418.429596,223.659363 415.151886,224.972122 414.730347,219.730347 
z"/>
<path fill="#000000" opacity="1.000000" stroke="none" 
	d="
M211.423492,183.611420 
	C204.664352,175.016846 202.311768,166.057083 206.961365,156.025299 
	C209.253967,151.078857 212.391006,150.163605 216.140381,154.188843 
	C222.159195,160.650497 225.021118,168.375977 222.759888,177.365067 
	C222.316086,179.129288 221.795395,180.884689 221.157364,182.586868 
	C220.362442,184.707596 220.088745,187.575653 217.359177,187.951233 
	C214.567383,188.335388 212.940781,186.140121 211.423492,183.611420 
z"/>
<path fill="#000000" opacity="1.000000" stroke="none" 
	d="
M408.402557,170.381409 
	C411.683807,167.270142 414.926361,164.628906 418.844299,163.172409 
	C422.014954,161.993698 424.203217,162.665314 424.462036,166.844086 
	C424.964661,174.958679 422.149567,181.815567 417.127411,187.881363 
	C413.762177,191.945984 409.972473,192.013794 407.018097,188.391327 
	C401.819458,190.451630 400.250946,189.365616 400.708984,183.635803 
	C401.142975,178.206528 404.137512,174.090958 408.402557,170.381409 
z"/>
<path fill="#000000" opacity="1.000000" stroke="none" 
	d="
M172.644470,251.403091 
	C169.222488,257.301727 163.563507,259.499725 158.090683,261.798798 
	C155.080353,263.063416 153.906906,261.125305 153.687531,258.299927 
	C152.853851,247.562363 158.265335,237.853531 167.822998,233.028610 
	C173.646667,230.088699 176.088333,231.595490 176.388657,237.982407 
	C176.614899,242.793976 175.635773,247.162415 172.644470,251.403091 
z"/>
<path fill="#000000" opacity="1.000000" stroke="none" 
	d="
M192.843613,186.805969 
	C201.106293,184.872513 210.722778,192.492355 212.121536,201.939331 
	C212.650528,205.511993 212.412354,209.231598 212.217789,212.867828 
	C212.052811,215.951370 210.330215,216.881149 207.441177,215.512146 
	C198.158218,211.113220 191.810715,204.476379 190.917130,193.751831 
	C190.722839,191.419785 191.501114,189.206360 192.843613,186.805969 
z"/>
<path fill="#000000" opacity="1.000000" stroke="none" 
	d="
M183.347321,257.637970 
	C189.013733,267.815765 181.641998,281.826477 171.580795,286.651062 
	C168.513855,288.121735 166.938354,286.822479 166.038849,283.914215 
	C163.058472,274.278076 169.101562,260.937286 178.213287,257.169189 
	C179.813614,256.507416 181.454437,256.502106 183.347321,257.637970 
z"/>
<path fill="#000000" opacity="1.000000" stroke="none" 
	d="
M356.924988,263.794434 
	C352.468384,255.520081 355.437103,247.950104 358.110168,240.499420 
	C359.032684,237.928024 361.532227,238.464417 363.653870,239.482712 
	C369.583252,242.328552 375.484711,257.748077 372.693359,263.612213 
	C370.233826,268.779297 367.969849,263.350281 365.520203,263.275635 
	C363.378479,264.875061 365.291809,267.849792 363.278107,269.759979 
	C359.454590,269.999817 358.142334,267.238464 356.924988,263.794434 
z"/>
<path fill="#000000" opacity="1.000000" stroke="none" 
	d="
M406.224854,163.363083 
	C402.749237,165.490738 401.501984,162.619492 399.904480,161.147949 
	C397.793640,160.795441 396.762970,163.402740 394.719116,162.664490 
	C391.709717,154.242691 396.935669,142.528671 405.023834,139.537399 
	C409.155762,138.009277 411.174255,139.196930 411.294586,143.447693 
	C411.492432,150.436050 411.771881,157.483521 406.224854,163.363083 
z"/>
<path fill="#000000" opacity="1.000000" stroke="none" 
	d="
M198.040344,291.391327 
	C196.419556,294.157043 194.910629,296.529175 193.451416,298.931488 
	C191.678528,301.850220 189.743881,301.753601 187.476715,299.449707 
	C182.003433,293.887726 184.902390,277.175873 192.043777,274.281952 
	C195.584976,272.846924 197.052399,275.693451 198.224060,278.330414 
	C200.094849,282.540802 198.685593,286.784241 198.040344,291.391327 
z"/>
<path fill="#000000" opacity="1.000000" stroke="none" 
	d="
M392.310852,141.507843 
	C391.826782,144.462677 389.792938,144.807343 387.816467,145.138672 
	C386.878113,145.295975 385.786530,144.725555 385.022369,145.669907 
	C383.868591,147.095627 382.688873,149.034866 380.620178,147.823685 
	C378.477875,146.569382 377.708679,143.897003 377.858185,141.721863 
	C378.225372,136.380569 379.811096,131.316879 383.499084,127.169464 
	C385.009186,125.471207 386.772522,124.136497 389.152374,124.930992 
	C391.522247,125.722153 392.241028,127.842278 392.305145,130.099121 
	C392.408905,133.751968 392.345276,137.409576 392.310852,141.507843 
z"/>
<path fill="#000000" opacity="1.000000" stroke="none" 
	d="
M353.610229,103.430557 
	C356.570129,106.908867 357.486786,110.666763 357.317047,114.772438 
	C357.166595,118.411606 356.680084,121.870316 352.064758,122.288216 
	C347.060944,122.741295 344.804077,120.597443 343.455841,115.960396 
	C342.265198,111.865295 343.363159,108.607620 345.202362,105.135857 
	C347.829254,100.177162 348.518463,99.912842 353.610229,103.430557 
z"/>
<path fill="#000000" opacity="1.000000" stroke="none" 
	d="
M215.794312,295.823364 
	C216.959137,300.410034 216.008484,304.415680 214.683578,308.375488 
	C213.986710,310.458252 212.449158,311.801575 210.357666,312.028229 
	C208.238480,312.257874 206.840652,310.478394 206.274200,308.888916 
	C204.450302,303.771118 202.527664,298.580902 204.473343,292.978302 
	C205.233109,290.790527 205.558899,288.207428 208.425812,287.847687 
	C211.625565,287.446198 213.131454,289.802765 214.408340,292.198090 
	C214.946365,293.207397 215.219482,294.357910 215.794312,295.823364 
z"/>
<path fill="#000000" opacity="1.000000" stroke="none" 
	d="
M221.454437,313.294128 
	C220.453125,309.255371 221.719681,306.115570 223.654816,303.133545 
	C225.695602,299.988739 228.260742,300.883087 230.343491,302.728119 
	C233.529633,305.550507 234.676300,313.059296 232.937332,317.031769 
	C232.087433,318.973267 231.249985,320.920258 230.333878,323.033264 
	C223.780777,323.302734 223.017731,318.158325 221.454437,313.294128 
z"/>
<path fill="#000000" opacity="1.000000" stroke="none" 
	d="
M251.335327,320.156006 
	C251.189194,322.065552 251.278702,323.617462 250.823212,324.988281 
	C250.249695,326.714233 249.002411,327.725098 246.963715,326.818146 
	C243.132263,325.113678 238.979172,317.503723 239.957779,313.439514 
	C240.432114,311.469482 240.672913,309.003693 243.562271,308.717651 
	C246.055557,308.470856 247.721878,309.831482 248.853363,311.747253 
	C250.287781,314.176025 251.141449,316.862976 251.335327,320.156006 
z"/>
<path fill="#000000" opacity="1.000000" stroke="none" 
	d="
M329.072845,114.557594 
	C325.422394,110.435204 326.663696,105.801758 327.012726,101.439316 
	C327.212677,98.940529 329.273132,98.289032 331.512634,99.519806 
	C335.603912,101.768295 337.816284,105.434258 338.169952,109.936096 
	C338.349487,112.220901 337.614532,115.006554 334.165771,113.946831 
	C332.272522,113.365082 331.094177,115.213844 329.072845,114.557594 
z"/>
</svg>